<mxfile host="Electron" modified="2023-11-22T14:28:38.207Z" agent="Mozilla/5.0 (Windows NT 10.0; Win64; x64) AppleWebKit/537.36 (KHTML, like Gecko) draw.io/21.6.8 Chrome/114.0.5735.289 Electron/25.5.0 Safari/537.36" etag="_n2AvKIc0IUDgl9p7y7b" version="21.6.8" type="device">
  <diagram id="C7Vc3hfoCBo6vqMLTbkt" name="Page-2">
    <mxGraphModel dx="2518" dy="2065" grid="1" gridSize="10" guides="1" tooltips="1" connect="1" arrows="1" fold="1" page="1" pageScale="1" pageWidth="850" pageHeight="1100" math="0" shadow="0">
      <root>
        <mxCell id="0" />
        <mxCell id="1" parent="0" />
        <mxCell id="U5Y3LqBTOq6JzzIYihoL-20" value="" style="ellipse;whiteSpace=wrap;html=1;fillColor=#d5e8d4;strokeColor=#82b366;" vertex="1" parent="1">
          <mxGeometry x="410" y="350" width="700" height="220" as="geometry" />
        </mxCell>
        <mxCell id="U5Y3LqBTOq6JzzIYihoL-19" value="" style="ellipse;whiteSpace=wrap;html=1;fillColor=#fff2cc;strokeColor=#d6b656;" vertex="1" parent="1">
          <mxGeometry x="-290" y="350" width="700" height="220" as="geometry" />
        </mxCell>
        <mxCell id="U5Y3LqBTOq6JzzIYihoL-18" value="" style="ellipse;whiteSpace=wrap;html=1;fillColor=#dae8fc;strokeColor=#6c8ebf;" vertex="1" parent="1">
          <mxGeometry x="250" y="-150" width="310" height="560" as="geometry" />
        </mxCell>
        <mxCell id="U5Y3LqBTOq6JzzIYihoL-1" value="" style="shape=mxgraph.cisco.routers.router;sketch=0;html=1;pointerEvents=1;dashed=0;fillColor=#036897;strokeColor=#ffffff;strokeWidth=2;verticalLabelPosition=bottom;verticalAlign=top;align=center;outlineConnect=0;" vertex="1" parent="1">
          <mxGeometry x="370" y="380" width="78" height="53" as="geometry" />
        </mxCell>
        <mxCell id="U5Y3LqBTOq6JzzIYihoL-2" value="" style="shape=mxgraph.cisco.routers.router;sketch=0;html=1;pointerEvents=1;dashed=0;fillColor=#036897;strokeColor=#ffffff;strokeWidth=2;verticalLabelPosition=bottom;verticalAlign=top;align=center;outlineConnect=0;" vertex="1" parent="1">
          <mxGeometry x="721" y="430" width="78" height="53" as="geometry" />
        </mxCell>
        <mxCell id="U5Y3LqBTOq6JzzIYihoL-3" value="" style="shape=mxgraph.cisco.routers.router;sketch=0;html=1;pointerEvents=1;dashed=0;fillColor=#036897;strokeColor=#ffffff;strokeWidth=2;verticalLabelPosition=bottom;verticalAlign=top;align=center;outlineConnect=0;" vertex="1" parent="1">
          <mxGeometry x="370" y="170" width="78" height="53" as="geometry" />
        </mxCell>
        <mxCell id="U5Y3LqBTOq6JzzIYihoL-4" value="" style="shape=mxgraph.cisco.routers.router;sketch=0;html=1;pointerEvents=1;dashed=0;fillColor=#036897;strokeColor=#ffffff;strokeWidth=2;verticalLabelPosition=bottom;verticalAlign=top;align=center;outlineConnect=0;" vertex="1" parent="1">
          <mxGeometry x="21" y="430" width="78" height="53" as="geometry" />
        </mxCell>
        <mxCell id="U5Y3LqBTOq6JzzIYihoL-5" value="" style="endArrow=none;html=1;rounded=0;" edge="1" parent="1" source="U5Y3LqBTOq6JzzIYihoL-1" target="U5Y3LqBTOq6JzzIYihoL-3">
          <mxGeometry width="50" height="50" relative="1" as="geometry">
            <mxPoint x="400" y="450" as="sourcePoint" />
            <mxPoint x="450" y="400" as="targetPoint" />
          </mxGeometry>
        </mxCell>
        <mxCell id="U5Y3LqBTOq6JzzIYihoL-6" value="" style="endArrow=none;html=1;rounded=0;exitX=0.12;exitY=0.9;exitDx=0;exitDy=0;exitPerimeter=0;" edge="1" parent="1" source="U5Y3LqBTOq6JzzIYihoL-1" target="U5Y3LqBTOq6JzzIYihoL-4">
          <mxGeometry width="50" height="50" relative="1" as="geometry">
            <mxPoint x="400" y="450" as="sourcePoint" />
            <mxPoint x="450" y="400" as="targetPoint" />
          </mxGeometry>
        </mxCell>
        <mxCell id="U5Y3LqBTOq6JzzIYihoL-7" value="" style="endArrow=none;html=1;rounded=0;exitX=0.88;exitY=0.9;exitDx=0;exitDy=0;exitPerimeter=0;" edge="1" parent="1" source="U5Y3LqBTOq6JzzIYihoL-1" target="U5Y3LqBTOq6JzzIYihoL-2">
          <mxGeometry width="50" height="50" relative="1" as="geometry">
            <mxPoint x="400" y="450" as="sourcePoint" />
            <mxPoint x="450" y="400" as="targetPoint" />
          </mxGeometry>
        </mxCell>
        <mxCell id="U5Y3LqBTOq6JzzIYihoL-8" value="&lt;font style=&quot;font-size: 20px;&quot;&gt;R2&lt;/font&gt;" style="text;html=1;align=center;verticalAlign=middle;resizable=0;points=[];autosize=1;strokeColor=none;fillColor=none;" vertex="1" parent="1">
          <mxGeometry x="384" y="130" width="50" height="40" as="geometry" />
        </mxCell>
        <mxCell id="U5Y3LqBTOq6JzzIYihoL-9" value="&lt;font style=&quot;font-size: 20px;&quot;&gt;R3&lt;/font&gt;" style="text;html=1;align=center;verticalAlign=middle;resizable=0;points=[];autosize=1;strokeColor=none;fillColor=none;" vertex="1" parent="1">
          <mxGeometry x="35" y="476.5" width="50" height="40" as="geometry" />
        </mxCell>
        <mxCell id="U5Y3LqBTOq6JzzIYihoL-10" value="&lt;font style=&quot;font-size: 20px;&quot;&gt;R4&lt;/font&gt;" style="text;html=1;align=center;verticalAlign=middle;resizable=0;points=[];autosize=1;strokeColor=none;fillColor=none;" vertex="1" parent="1">
          <mxGeometry x="735" y="476.5" width="50" height="40" as="geometry" />
        </mxCell>
        <mxCell id="U5Y3LqBTOq6JzzIYihoL-11" value="&lt;font style=&quot;font-size: 20px;&quot;&gt;R1&lt;/font&gt;" style="text;html=1;align=center;verticalAlign=middle;resizable=0;points=[];autosize=1;strokeColor=none;fillColor=none;" vertex="1" parent="1">
          <mxGeometry x="384" y="430" width="50" height="40" as="geometry" />
        </mxCell>
        <mxCell id="U5Y3LqBTOq6JzzIYihoL-12" value="&lt;font style=&quot;font-size: 18px;&quot;&gt;12.1.1.0/24&lt;/font&gt;" style="text;html=1;align=center;verticalAlign=middle;resizable=0;points=[];autosize=1;strokeColor=none;fillColor=none;" vertex="1" parent="1">
          <mxGeometry x="410" y="290" width="110" height="40" as="geometry" />
        </mxCell>
        <mxCell id="U5Y3LqBTOq6JzzIYihoL-13" value="&lt;font style=&quot;font-size: 18px;&quot;&gt;13.1.1.0/24&lt;/font&gt;" style="text;html=1;align=center;verticalAlign=middle;resizable=0;points=[];autosize=1;strokeColor=none;fillColor=none;" vertex="1" parent="1">
          <mxGeometry x="190" y="450" width="110" height="40" as="geometry" />
        </mxCell>
        <mxCell id="U5Y3LqBTOq6JzzIYihoL-14" value="&lt;font style=&quot;font-size: 18px;&quot;&gt;14.1.1.0/24&lt;/font&gt;" style="text;html=1;align=center;verticalAlign=middle;resizable=0;points=[];autosize=1;strokeColor=none;fillColor=none;" vertex="1" parent="1">
          <mxGeometry x="520" y="450" width="110" height="40" as="geometry" />
        </mxCell>
        <mxCell id="U5Y3LqBTOq6JzzIYihoL-15" value="&lt;div style=&quot;text-align: left;&quot;&gt;&lt;span style=&quot;font-size: 18px; background-color: initial;&quot;&gt;Lo0 3.3.3.3/24&lt;/span&gt;&lt;/div&gt;&lt;font style=&quot;font-size: 18px;&quot;&gt;&lt;div style=&quot;text-align: left;&quot;&gt;&lt;span style=&quot;background-color: initial;&quot;&gt;Lo1 192.168.3.1/27&lt;/span&gt;&lt;/div&gt;&lt;div style=&quot;text-align: left;&quot;&gt;&lt;span style=&quot;background-color: initial;&quot;&gt;Lo2 192.168.3.33/27&lt;/span&gt;&lt;/div&gt;&lt;div style=&quot;text-align: left;&quot;&gt;&lt;span style=&quot;background-color: initial;&quot;&gt;Lo3 192.168.3.65/27&lt;/span&gt;&lt;/div&gt;&lt;div style=&quot;text-align: left;&quot;&gt;&lt;span style=&quot;background-color: initial;&quot;&gt;Lo4 192.168.3.97/27&lt;/span&gt;&lt;/div&gt;&lt;/font&gt;" style="text;html=1;align=center;verticalAlign=middle;resizable=0;points=[];autosize=1;strokeColor=none;fillColor=none;" vertex="1" parent="1">
          <mxGeometry x="-200" y="400" width="190" height="120" as="geometry" />
        </mxCell>
        <mxCell id="U5Y3LqBTOq6JzzIYihoL-16" value="&lt;div style=&quot;text-align: left;&quot;&gt;&lt;span style=&quot;font-size: 18px; background-color: initial;&quot;&gt;Lo0 2.2.2.2/24&lt;/span&gt;&lt;/div&gt;&lt;font style=&quot;font-size: 18px;&quot;&gt;&lt;div style=&quot;text-align: left;&quot;&gt;&lt;span style=&quot;background-color: initial;&quot;&gt;Lo1 192.168.2.1/27&lt;/span&gt;&lt;/div&gt;&lt;div style=&quot;text-align: left;&quot;&gt;&lt;span style=&quot;background-color: initial;&quot;&gt;Lo2 192.168.2.33/27&lt;/span&gt;&lt;/div&gt;&lt;div style=&quot;text-align: left;&quot;&gt;&lt;span style=&quot;background-color: initial;&quot;&gt;Lo3 192.168.2.65/27&lt;/span&gt;&lt;/div&gt;&lt;div style=&quot;text-align: left;&quot;&gt;&lt;span style=&quot;background-color: initial;&quot;&gt;Lo4 192.168.2.97/27&lt;/span&gt;&lt;/div&gt;&lt;/font&gt;" style="text;html=1;align=center;verticalAlign=middle;resizable=0;points=[];autosize=1;strokeColor=none;fillColor=none;" vertex="1" parent="1">
          <mxGeometry x="314" y="-20" width="190" height="120" as="geometry" />
        </mxCell>
        <mxCell id="U5Y3LqBTOq6JzzIYihoL-17" value="&lt;div style=&quot;text-align: left;&quot;&gt;&lt;span style=&quot;font-size: 18px; background-color: initial;&quot;&gt;Lo0 4.4.4.4/24&lt;/span&gt;&lt;/div&gt;&lt;font style=&quot;font-size: 18px;&quot;&gt;&lt;div style=&quot;text-align: left;&quot;&gt;&lt;span style=&quot;background-color: initial;&quot;&gt;Lo1 192.168.4.1/27&lt;/span&gt;&lt;/div&gt;&lt;div style=&quot;text-align: left;&quot;&gt;&lt;span style=&quot;background-color: initial;&quot;&gt;Lo2 192.168.4.33/27&lt;/span&gt;&lt;/div&gt;&lt;div style=&quot;text-align: left;&quot;&gt;&lt;span style=&quot;background-color: initial;&quot;&gt;Lo3 192.168.4.65/27&lt;/span&gt;&lt;/div&gt;&lt;div style=&quot;text-align: left;&quot;&gt;&lt;span style=&quot;background-color: initial;&quot;&gt;Lo4 192.168.4.97/27&lt;/span&gt;&lt;/div&gt;&lt;/font&gt;" style="text;html=1;align=center;verticalAlign=middle;resizable=0;points=[];autosize=1;strokeColor=none;fillColor=none;" vertex="1" parent="1">
          <mxGeometry x="840" y="400" width="190" height="120" as="geometry" />
        </mxCell>
        <mxCell id="U5Y3LqBTOq6JzzIYihoL-22" value="&lt;div style=&quot;text-align: left;&quot;&gt;&lt;span style=&quot;font-size: 18px; background-color: initial;&quot;&gt;Lo0 1.1.1.1/24&lt;/span&gt;&lt;/div&gt;&lt;font style=&quot;font-size: 18px;&quot;&gt;&lt;div style=&quot;text-align: left;&quot;&gt;&lt;br&gt;&lt;/div&gt;&lt;/font&gt;" style="text;html=1;align=center;verticalAlign=middle;resizable=0;points=[];autosize=1;strokeColor=none;fillColor=none;" vertex="1" parent="1">
          <mxGeometry x="339" y="466.5" width="140" height="60" as="geometry" />
        </mxCell>
        <mxCell id="U5Y3LqBTOq6JzzIYihoL-23" value="&lt;p style=&quot;line-height: 120%;&quot;&gt;&lt;font style=&quot;font-size: 20px;&quot;&gt;&lt;b&gt;OSPF PID 10&lt;/b&gt;&lt;/font&gt;&lt;/p&gt;" style="text;html=1;align=center;verticalAlign=middle;resizable=0;points=[];autosize=1;strokeColor=none;fillColor=none;" vertex="1" parent="1">
          <mxGeometry x="-10" y="360" width="140" height="50" as="geometry" />
        </mxCell>
        <mxCell id="U5Y3LqBTOq6JzzIYihoL-24" value="&lt;p style=&quot;line-height: 120%;&quot;&gt;&lt;font style=&quot;font-size: 20px;&quot;&gt;&lt;b&gt;EIGRP AS 20&lt;/b&gt;&lt;/font&gt;&lt;/p&gt;" style="text;html=1;align=center;verticalAlign=middle;resizable=0;points=[];autosize=1;strokeColor=none;fillColor=none;" vertex="1" parent="1">
          <mxGeometry x="335" y="-110" width="140" height="50" as="geometry" />
        </mxCell>
        <mxCell id="U5Y3LqBTOq6JzzIYihoL-25" value="&lt;p style=&quot;line-height: 120%;&quot;&gt;&lt;font style=&quot;font-size: 20px;&quot;&gt;&lt;b&gt;RIP&lt;/b&gt;&lt;/font&gt;&lt;/p&gt;" style="text;html=1;align=center;verticalAlign=middle;resizable=0;points=[];autosize=1;strokeColor=none;fillColor=none;" vertex="1" parent="1">
          <mxGeometry x="730" y="360" width="60" height="50" as="geometry" />
        </mxCell>
      </root>
    </mxGraphModel>
  </diagram>
</mxfile>
